<?xml version="1.0" encoding="UTF-8" standalone="no"?>
<svg width="500px" height="500px" viewBox="0 0 500 500" version="1.1" xmlns="http://www.w3.org/2000/svg" xmlns:xlink="http://www.w3.org/1999/xlink">
    <!-- Generator: Sketch 39.1 (31720) - http://www.bohemiancoding.com/sketch -->
    <title>MIL</title>
    <desc>Created with Sketch.</desc>
    <defs></defs>
    <g id="MLB" stroke="none" stroke-width="1" fill="none" fill-rule="evenodd">
        <g id="MIL">
            <g id="Page-1" transform="translate(18.000000, 0.000000)">
                <path d="M93.5727273,438.636364 C86.6818182,441.990909 79.8727273,445.5 73.1636364,449.163636 L99,456.427273 C105.445455,453.254545 111.945455,450.227273 118.572727,447.345455 L93.5727273,438.636364 Z" id="Fill-1" fill="#BA9764"></path>
                <path d="M153.729091,414.390909 L177.801818,426.281818 C184.710909,424.345455 191.674545,422.554545 198.72,420.945455 L175.729091,407.8 C168.338182,409.836364 160.992727,412.027273 153.729091,414.390909" id="Fill-3" fill="#BA9764"></path>
                <path d="M210.422727,399.715455 L232.85,414.460909 C239.931818,413.388182 247.05,412.451818 254.25,411.706364 L233.104545,395.888182 C225.459091,396.988182 217.931818,398.27 210.422727,399.715455" id="Fill-5" fill="#BA9764"></path>
                <path d="M209.339091,395.259091 C216.939091,393.777273 224.63,392.477273 232.357273,391.35 L247.666364,370.904545 C239.448182,371.804545 231.293636,372.877273 223.184545,374.159091 L209.339091,395.259091 Z" id="Fill-7" fill="#BA9764"></path>
                <path d="M99.29,435.937273 L124.626364,444.764545 C131.235455,442.000909 137.926364,439.373636 144.708182,436.900909 L120.317273,426.682727 C113.226364,429.61 106.217273,432.691818 99.29,435.937273" id="Fill-9" fill="#BA9764"></path>
                <path d="M126.118182,424.311818 L150.890909,434.693636 C157.672727,432.33 164.527273,430.139091 171.445455,428.102727 L147.7,416.375455 C140.427273,418.857273 133.236364,421.502727 126.118182,424.311818" id="Fill-11" fill="#BA9764"></path>
                <path d="M180.54,401.757273 C188.030909,399.811818 195.612727,398.039091 203.267273,396.439091 L217.24,375.157273 C209.112727,376.557273 201.030909,378.139091 193.04,379.911818 L180.54,401.757273 Z" id="Fill-13" fill="#BA9764"></path>
                <path d="M181.8,406.17 L205.127273,419.524545 C212.163636,418.015455 219.245455,416.679091 226.372727,415.497273 L204.209091,400.933636 C196.681818,402.506364 189.181818,404.251818 181.8,406.17" id="Fill-15" fill="#BA9764"></path>
                <path d="M253.649091,370.303636 L238.549091,390.476364 C246.221818,389.458182 253.958182,388.64 261.758182,387.985455 L278.294545,368.521818 C273.121818,368.767273 267.930909,369.067273 262.749091,369.476364 C259.703636,369.703636 256.676364,370.012727 253.649091,370.303636" id="Fill-17" fill="#BA9764"></path>
                <path d="M239.32,395.001818 L260.838182,411.101818 C262.556364,410.956364 264.256364,410.774545 265.992727,410.638182 C271.447273,410.210909 276.901818,409.92 282.329091,409.674545 L262.183636,392.556364 C254.492727,393.201818 246.874545,394.001818 239.32,395.001818" id="Fill-19" fill="#BA9764"></path>
                <path d="M152.130909,410.093636 C159.512727,407.675455 166.94,405.448182 174.485455,403.393636 L187.176364,381.202727 C179.14,383.084545 171.185455,385.166364 163.303636,387.43 L152.130909,410.093636 Z" id="Fill-21" fill="#BA9764"></path>
                <path d="M314.107273,388.702727 L310.307273,390.957273 C347.925455,391.575455 385.089091,395.220909 420.498182,403.657273 L420.58,403.166364 C385.052727,393.475455 348.270909,386.966364 310.116364,386.366364 L314.107273,388.702727 Z" id="Fill-23" fill="#BA9764"></path>
                <path d="M77.5745455,420.978182 L70.7563636,445.26 C77.5745455,441.514545 84.4927273,437.941818 91.5109091,434.532727 L99.9018182,410.441818 C92.3654545,413.778182 84.9290909,417.296364 77.5745455,420.978182" id="Fill-25" fill="#BA9764"></path>
                <path d="M124.29,420.099091 C131.526364,417.244545 138.835455,414.544545 146.217273,412.026364 L157.508182,389.171818 C149.59,391.544545 141.762727,394.117273 134.053636,396.853636 L124.29,420.099091 Z" id="Fill-27" fill="#BA9764"></path>
                <path d="M128.390909,398.880909 C120.645455,401.735455 113.009091,404.780909 105.472727,407.999091 L97.1363636,431.871818 C104.172727,428.571818 111.290909,425.435455 118.5,422.462727 L128.390909,398.880909 Z" id="Fill-29" fill="#BA9764"></path>
                <path d="M283.576364,404.998182 L288.885455,409.416364 C324.176364,408.38 359.130909,409.943636 392.621818,416.070909 L392.74,415.652727 C357.476364,408.016364 321.112727,403.489091 283.576364,404.998182" id="Fill-31" fill="#BA9764"></path>
                <polygon id="Fill-33" fill="#BA9764" points="305.122727 388.525455 278.386364 375.098182 265.768182 389.952727 281.140909 402.88"></polygon>
                <path d="M117.099091,373.250909 C84.7536364,384.241818 48.0536364,403.369091 27.4809091,415.678182 L38.7263636,426.923636 C62.5172727,412.869091 95.8081818,395.432727 128.235455,384.723636 L164.308182,252.587273 L160.653636,213.56 L117.099091,373.250909 Z" id="Fill-35" fill="#BA9764"></path>
                <path d="M48.1263636,173.814545 C48.1263636,144.032727 71.79,118.478182 101.944545,115.632727 C111.526364,114.723636 120.99,116.178182 129.599091,119.632727 L105.308182,125.605455 L134.817273,118.36 C122.708182,107.996364 106.908182,102.86 90.7081818,104.396364 C60.5263636,107.232727 36.8990909,132.787273 36.8990909,162.569091 C36.8990909,170.769091 39.7718182,178.696364 44.9081818,184.932727 C46.9627273,184.014545 49.1172727,183.378182 51.3081818,182.841818 C50.6809091,182.996364 50.0445455,183.078182 49.4354545,183.26 C48.5990909,180.205455 48.1263636,177.032727 48.1263636,173.814545" id="Fill-37" fill="#BA9764"></path>
                <path d="M99.76,205.73 C101.56,199.175455 104.187273,189.620909 106.769091,180.184545 L99.76,205.720909 L99.76,205.73 Z" id="Fill-39" fill="#BA9764"></path>
                <path d="M60.2272727,257.012727 C47.7272727,257.012727 34.4454545,250.894545 23.7636364,240.230909 C25.6545455,242.103636 33.1181818,249.576364 35.0181818,251.476364 C45.6818182,262.14 58.9545455,268.258182 71.4545455,268.258182 C75.5090909,268.258182 79.4090909,267.603636 83.0818182,266.403636 L89.5272727,242.976364 C82.6181818,251.54 72.0545455,257.012727 60.2272727,257.012727" id="Fill-41" fill="#BA9764"></path>
                <path d="M364.364545,366.619091 C339.655455,372.455455 317.619091,366.900909 302.400909,350.991818 C304.555455,353.237273 312.091818,360.61 313.646364,362.237273 C315.982727,364.673636 318.519091,366.782727 321.155455,368.719091 C308.982727,368.055455 296.71,367.828182 284.31,368.282727 L280.364545,372.991818 C296.191818,372.291818 311.873636,372.319091 327.464545,372.791818 C341.037273,380.246364 357.573636,382.119091 375.61,377.855455 L379.291818,376.973636 C386.137273,377.91 393.01,378.791818 399.773636,380.046364 L399.882727,379.655455 C393.828182,378.346364 387.728182,377.173636 381.600909,376.055455 L380.846364,364.419091 L369.628182,353.164545 L370.391818,365.164545 L364.364545,366.619091 Z" id="Fill-43" fill="#BA9764"></path>
                <g id="Group-47" transform="translate(336.363636, 2.982727)" fill="#BA9764">
                    <path d="M100.044545,6.10818182 L96.8172727,17.8627273 C93.0809091,31.3263636 85.9536364,36.4263636 80.7263636,40.1354545 C76.9445455,42.8263636 74.8809091,44.3081818 73.69,48.3354545 L7.09,287.626364 C2.72636364,302.680909 3.75363636,326.399091 13.0081818,340.153636 C15.6718182,344.117273 18.8172727,346.79 22.39,348.271818 C14.8990909,334.262727 14.29,312.835455 18.3354545,298.862727 L84.9354545,59.5809091 C86.1081818,55.5536364 88.19,54.0718182 91.9809091,51.3809091 C97.2081818,47.6627273 104.362727,42.5718182 108.071818,29.1081818 L111.299091,17.3536364 L100.044545,6.10818182 Z" id="Fill-45"></path>
                </g>
                <path d="M217.595455,348.335455 C203.377273,350.099091 185.204545,353.499091 174.022727,356.480909 L185.477273,367.708182 C195.131818,365.117273 217.077273,361.09 228.831818,359.580909 L291.795455,249.171818 C292.631818,246.799091 298.55,224.835455 308.459091,189.017273 L217.595455,348.335455 Z" id="Fill-48" fill="#BA9764"></path>
                <path d="M226.065455,253.24 L234.783636,237.930909 C231.938182,208.049091 228.874545,175.567273 228.874545,175.567273 C226.292727,148.285455 216.029091,125.103636 198.956364,107.785455 C196.929091,105.749091 188.783636,97.5945455 186.565455,95.4036364 C204.32,112.84 215.001818,136.44 217.629091,164.330909 C217.629091,164.330909 222.965455,220.676364 226.065455,253.24" id="Fill-50" fill="#BA9764"></path>
                <path d="M113.831818,149.977273 C114.168182,150.104545 114.559091,150.277273 114.931818,150.431818 C114.877273,150.631818 110.913636,165.113636 106.777273,180.186364 C104.186364,189.613636 101.559091,199.177273 99.7590909,205.731818 C98.4045455,210.659091 97.5136364,213.931818 97.5136364,213.931818 C96.35,205.922727 92.6772727,198.522727 86.8590909,192.695455 C79.7409091,185.577273 70.2772727,181.659091 60.2318182,181.659091 C57.8772727,181.659091 55.5590909,181.968182 53.2863636,182.395455 C52.6136364,182.522727 51.9590909,182.677273 51.3045455,182.840909 C49.1227273,183.377273 46.9681818,184.013636 44.9045455,184.931818 C39.7772727,178.695455 36.8954545,170.777273 36.8954545,162.568182 C36.8954545,132.786364 60.5318182,107.231818 90.7045455,104.395455 C106.904545,102.859091 122.713636,107.995455 134.822727,118.359091 L105.313636,125.604545 L104.204545,129.640909 C100.095455,144.386364 110.086364,148.45 113.831818,149.977273 M362.704545,359.65 C304.931818,373.295455 279.931818,317.859091 292.922727,271.977273 L330.695455,135.613636 L213.159091,341.731818 C200.25,343.477273 186.222727,346.45 180.431818,347.659091 L164.095455,173.813636 L111.113636,367.677273 C85.3227273,377.013636 59.5227273,389.204545 39.0227273,400.604545 C46.9772727,371.368182 58.2590909,382.977273 64.6681818,359.740909 L121.677273,153.004545 C125.540909,138.813636 106.495455,148.104545 111.077273,131.559091 L148.568182,122.368182 C135.05,105.222727 113.386364,95.0590909 90.0409091,97.2681818 C55.8772727,100.477273 29.7409091,129.004545 29.7409091,162.568182 C29.7409091,174.959091 35.0227273,186.104545 43.4863636,193.822727 C48.2954545,190.668182 54.0318182,188.822727 60.2318182,188.822727 C77.0681818,188.822727 90.7318182,202.486364 90.7318182,219.331818 C90.7318182,236.186364 77.0681818,249.85 60.2318182,249.85 C37.7772727,249.85 7.17727273,225.15 7.17727273,175.413636 C7.17727273,124.004545 47.7318182,78.45 100.013636,73.5227273 C155.768182,68.2772727 204.595455,102.413636 210.504545,165.004545 L221.077273,276.468182 L358.377273,35.5681818 L426.259091,18.95 C420.731818,39.1045455 407.322727,35.1681818 403.186364,49.3227273 L336.531818,288.677273 C329.213636,314.059091 336.068182,356.822727 362.704545,359.65 M349.368182,343.140909 C340.122727,329.377273 339.086364,305.668182 343.459091,290.604545 L410.05,51.3227273 C411.25,47.2954545 413.304545,45.8045455 417.086364,43.1227273 C422.322727,39.4045455 429.45,34.3136364 433.177273,20.85 L436.404545,9.09545455 L353.686364,29.35 L226.068182,253.240909 C222.968182,220.677273 217.631818,164.331818 217.631818,164.331818 C215.004545,136.440909 204.322727,112.840909 186.568182,95.4045455 C183.986364,92.8772727 181.268182,90.4681818 178.395455,88.2045455 C157.013636,71.35 128.940909,63.6045455 99.3318182,66.3954545 C72.3863636,68.9318182 47.2863636,81.6681818 28.6772727,102.240909 C10.1954545,122.677273 0.00454545455,148.659091 0.00454545455,175.413636 C0.00454545455,201.886364 8.45,224.904545 23.7681818,240.231818 C34.45,250.895455 47.7318182,257.013636 60.2318182,257.013636 C72.05,257.013636 82.6136364,251.531818 89.5227273,242.977273 L59.4136364,352.595455 C58.2318182,356.504545 55.7136364,366.668182 51.3772727,369.577273 C48.1590909,371.722727 43.5318182,375.904545 39.5045455,381.804545 C39.3681818,382.013636 39.2227273,382.231818 39.0772727,382.440909 C38.1954545,383.813636 37.3227273,385.140909 36.5318182,386.704545 C35.2863636,389.168182 34.1227273,391.786364 33.3136364,394.768182 L27.4772727,415.686364 C48.0590909,403.377273 84.7590909,384.25 117.095455,373.25 L160.65,213.568182 L164.313636,252.586364 L174.022727,356.486364 C185.213636,353.495455 203.377273,350.095455 217.595455,348.331818 L308.459091,189.022727 C298.55,224.831818 287.277273,265.486364 286.131818,269.622727 C286.059091,269.85 286.004545,270.031818 286.004545,270.031818 C277.559091,299.968182 283.986364,331.759091 302.395455,350.986364 C317.622727,366.895455 339.659091,372.45 364.368182,366.622727 L370.395455,365.159091 L369.631818,353.168182 L363.486364,352.522727 C361.940909,352.359091 360.486364,351.959091 359.077273,351.413636 C358.968182,351.368182 358.868182,351.295455 358.75,351.25 C355.186364,349.768182 352.031818,347.104545 349.368182,343.140909" id="Fill-52" fill="#001750"></path>
                <path d="M336.532727,288.68 L403.187273,49.3163636 C407.323636,35.1709091 420.732727,39.1072727 426.26,18.9527273 L358.378182,35.5618182 L221.078182,276.461818 L210.505455,165.007273 C204.596364,102.416364 155.769091,68.28 100.014545,73.5254545 C47.7236364,78.4527273 7.17818182,124.007273 7.17818182,175.416364 C7.17818182,225.152727 37.7781818,249.852727 60.2236364,249.852727 C77.0690909,249.852727 90.7327273,236.189091 90.7327273,219.334545 C90.7327273,202.489091 77.0690909,188.825455 60.2236364,188.825455 C54.0327273,188.825455 48.2963636,190.670909 43.4872727,193.816364 C35.0236364,186.107273 29.7418182,174.961818 29.7418182,162.561818 C29.7418182,129.007273 55.8781818,100.470909 90.0418182,97.2618182 C113.387273,95.0618182 135.050909,105.225455 148.569091,122.370909 L111.078182,131.561818 C106.496364,148.107273 125.541818,138.816364 121.678182,153.007273 L64.6690909,359.734545 C58.26,382.98 46.9781818,371.361818 39.0236364,400.607273 C59.5236364,389.207273 85.3236364,377.016364 111.114545,367.68 L164.096364,173.816364 L180.432727,347.661818 C186.223636,346.452727 200.250909,343.48 213.16,341.734545 L330.687273,135.616364 L292.923636,271.98 C279.932727,317.861818 304.932727,373.298182 362.705455,359.652727 C336.069091,356.825455 329.214545,314.061818 336.532727,288.68" id="Fill-54" fill="#FEFEFE"></path>
                <path d="M5.81454545,493.891818 C25.2418182,478.491818 45.9145455,464.528182 67.7054545,452.237273 L65.2781818,448.328182 C43.3509091,460.700909 22.5690909,474.764545 3.01454545,490.273636 L5.81454545,493.891818 Z" id="Fill-56" fill="#BA9764"></path>
            </g>
        </g>
    </g>
</svg>