<?xml version="1.0" encoding="UTF-8" standalone="no"?>
<svg width="500px" height="500px" viewBox="0 0 500 500" version="1.1" xmlns="http://www.w3.org/2000/svg" xmlns:xlink="http://www.w3.org/1999/xlink">
    <!-- Generator: Sketch 39.1 (31720) - http://www.bohemiancoding.com/sketch -->
    <title>SD</title>
    <desc>Created with Sketch.</desc>
    <defs>
        <polygon id="path-1" points="368.8678 491.138889 0 491.138889 0 0.00185185185 368.8678 0.00185185185 368.8678 491.138889"></polygon>
    </defs>
    <g id="MLB" stroke="none" stroke-width="1" fill="none" fill-rule="evenodd">
        <g id="SD">
            <g id="Page-1" transform="translate(65.000000, 0.000000)">
                <mask id="mask-2" fill="white">
                    <use xlink:href="#path-1"></use>
                </mask>
                <g id="Clip-2"></g>
                <path d="M319.68555,197.437037 C319.4543,248.668519 319.96305,349.825926 319.96305,394.733333 C319.96305,427.131481 294.1463,444.464815 262.02105,444.464815 C225.90905,444.464815 162.2228,444.52963 162.2228,444.52963 L162.60205,404.103704 L188.5483,404.103704 C235.3903,404.103704 266.05405,370.168519 266.05405,325.640741 L265.92455,325.612963 C268.4313,277.474074 267.31205,241.983333 267.31205,236.742593 C267.31205,217.575926 251.66105,180.622222 206.1418,180.622222 L163.54555,180.622222 L163.47155,141.409259 L264.14855,141.409259 C297.8463,141.409259 319.68555,165.77963 319.68555,197.112963 L319.68555,197.437037 Z M259.15355,98.4925926 C259.15355,98.4925926 89.63805,98.5388889 88.17655,98.5388889 C86.84455,98.5388889 86.91855,100.825926 88.17655,100.825926 C89.4993,100.825926 111.17205,102.798148 111.17205,122.714815 L111.2738,180.622222 C85.5958,180.622222 69.7043,180.733333 66.67955,180.622222 C56.9023,180.501852 54.7193,172.362963 54.9968,167.612963 C54.9968,167.085185 54.7193,118.085185 55.0708,87.4277778 C55.5703,62.4740741 68.97355,49.7240741 92.43155,49.7240741 L201.9978,49.1685185 C208.5468,49.1685185 214.2263,52.1962963 214.2263,60.2148148 C214.2263,68.2888889 205.6978,70.612963 204.20855,71.3351852 C203.5518,71.7055556 203.4223,72.7055556 204.1438,72.7055556 L268.2648,72.7055556 L267.46005,51.7981481 C266.94205,36.4462963 257.4608,0.325925926 209.8788,0.325925926 L81.03555,0.0481481481 L81.10955,0.00185185185 C34.2768,0.00185185185 1.46705,33.4 1.67055,78.1962963 L1.76305,79.0759259 C1.67055,105.761111 1.02305,143.27037 0.8843,167.288889 C0.72705,196.872222 26.3958,227.557407 62.12855,227.557407 L204.9578,227.557407 C214.7998,227.557407 217.4453,236.557407 217.4453,240.001852 C217.4453,241.233333 217.82455,285.631481 217.6858,317.696296 L217.38055,317.918519 C217.4453,338.307407 203.8663,354.353704 182.6653,354.353704 L161.56605,354.353704 L161.91755,247.353704 L111.17205,247.02037 L111.17205,354.548148 C85.5958,354.548148 67.93755,354.825926 65.8008,354.825926 C55.22805,354.825926 52.95255,345.909259 52.95255,341.844444 C52.95255,339.594444 53.0913,305.844444 53.1653,293.4 C53.2948,279.307407 73.37655,275.214815 73.37655,275.214815 L73.1638,273.77037 L0.3478,273.77037 C0.3478,273.77037 0.13505,323.788889 -0.0037,348.168519 C-0.16095,374.52037 22.0483,404.103704 53.6648,404.103704 L110.59855,404.103704 L110.2193,456.668519 C110.0898,476.881481 97.27855,486.557407 86.10455,489.955556 C85.5958,489.955556 85.53105,490.974074 86.17855,490.974074 L258.41355,490.974074 L258.41355,491.140741 C329.15755,491.140741 368.8678,456.511111 368.8678,386.705556 L368.8678,202.362963 C368.8678,131.918519 329.15755,98.4925926 259.15355,98.4925926 L259.15355,98.4925926 Z" id="Fill-1" fill="#00275D" mask="url(#mask-2)"></path>
            </g>
        </g>
    </g>
</svg>