<?xml version="1.0" encoding="UTF-8" standalone="no"?>
<svg width="500px" height="500px" viewBox="0 0 500 500" version="1.1" xmlns="http://www.w3.org/2000/svg" xmlns:xlink="http://www.w3.org/1999/xlink">
    <!-- Generator: Sketch 39.1 (31720) - http://www.bohemiancoding.com/sketch -->
    <title>MIA</title>
    <desc>Created with Sketch.</desc>
    <defs></defs>
    <g id="MLB" stroke="none" stroke-width="1" fill="none" fill-rule="evenodd">
        <g id="MIA">
            <g transform="translate(1.000000, 0.000000)">
                <path d="M83.9705558,281.218846 C80.5265613,276.996275 78.0101062,273.03963 76.2679451,269.945228 C74.0741125,265.996641 73.1143107,263.417972 73.1143107,263.417972 C72.3319513,260.823186 71.6625097,257.833542 71.1785761,254.384573 C67.1699922,225.205322 94.4477196,193.536045 130.379794,165.20292 L83.9705558,281.218846 L83.9705558,281.218846 Z M332.680196,346.45111 L388.259977,488.71305 L497.048264,488.71305 L345.770601,110.87359 L249.048393,288.358535 L157.64139,119.020572 L152.600415,109.648723 L145.84954,126.547062 L135.332048,152.793076 C123.257904,161.890943 112.990444,170.650359 103.860229,179.393658 C62.3145245,219.201859 58.5559731,248.792084 69.6380539,269.590661 C71.3237562,272.435255 73.3159497,275.158974 75.533979,277.761818 C83.7366546,287.351243 95.1090956,295.216183 105.908882,300.365462 C106.183111,300.486337 106.433143,300.615271 106.715438,300.720029 C107.288093,301.002071 107.876879,301.267996 108.457599,301.525863 C109.191565,301.848197 110.586907,302.452572 111.554775,302.863548 C112.014512,303.056948 112.401658,303.210056 112.530707,303.274523 C112.546839,303.266465 112.579101,303.274523 112.627494,303.29064 C111.546709,302.831314 110.070711,302.106064 109.022188,301.558097 L109.014123,301.566155 C108.215632,301.163238 107.449404,300.720029 106.642848,300.292937 C106.255701,300.067304 105.844357,299.849728 105.441079,299.616037 C105.368489,299.567687 105.287834,299.519337 105.199112,299.479045 C104.505474,299.060011 103.80377,298.624861 103.110132,298.205827 C102.602002,297.883493 102.101937,297.553102 101.601872,297.22271 C101.359905,297.069601 101.117939,296.908434 100.867906,296.731151 C100.545284,296.513576 100.198465,296.304059 99.8919733,296.086484 C96.8915846,294.007432 94.5767686,291.968672 93.1652954,290.695454 C92.7620174,290.332829 92.253887,289.825153 91.79415,289.390003 L152.576218,134.339477 L152.600415,134.355594 L155.012017,138.819914 L249.185508,312.936473 L345.770601,134.355594 L480.021864,476.988165 L396.390062,476.988165 L334.494947,318.698186 L249.193573,476.456314 L163.868003,318.698186 L163.787348,318.87547 L163.053382,320.777238 L163.053382,320.745005 L101.876101,476.988165 L18.2765613,476.988165 L86.8902889,301.864314 C87.0999935,301.920722 87.3338948,301.944897 87.5597305,301.985189 C84.2851127,301.39693 81.2201995,300.744204 78.5585644,300.115654 L78.4859743,300.115654 C78.5182366,300.115654 78.5343677,300.13177 78.5504988,300.147887 C78.4537121,300.115654 77.7116805,300.027012 76.5179775,299.849728 C76.5179775,299.849728 76.5179775,299.849728 76.4937808,299.849728 L0.983998445,488.71305 L109.699696,488.71305 L165.432722,346.45111 L249.016131,499.511226 L332.680196,346.45111 L332.680196,346.45111 Z" id="Fill-3" fill="#878986"></path>
                <path d="M234.659432,65.5373677 C313.855176,28.033852 367.652468,0.297044695 367.668599,0.297044695 L347.859581,7.86382623 C345.907716,8.76636035 304.095847,27.8162768 296.756187,31.0396129 C253.411862,50.0492377 195.251101,75.7795182 171.102812,88.0926622 C166.287672,90.5423977 158.472143,94.8052597 149.817796,99.857839 C67.4442213,151.56015 7.0573659,209.459325 37.73876,276.021216 C2.58097953,235.246014 33.4075538,175.388663 70.5817245,134.017144 C95.4155869,106.336745 107.159044,94.8939014 119.821975,74.3451337 C129.758746,58.2445698 136.138605,41.3462302 135.574015,24.3431321 C136.21926,24.6412907 122.322299,17.6305347 122.322299,17.6305347 C123.999935,23.086031 120.394629,56.2541597 99.0047616,85.4656433 C75.5823724,117.384729 -5.20228686,187.919382 19.3008875,254.352339 C32.8752267,291.122546 67.7426471,298.463694 76.5179775,299.849728 C77.187419,299.89002 77.848795,300.067304 78.4859743,300.115654 C2.45193055,260.968237 22.3577352,163.929703 234.659432,65.5373677" id="Fill-4" fill="#878986"></path>
                <path d="M168.086292,138.376706 C206.123478,113.661776 245.193055,93.9671923 264.550402,84.6598092 L256.912315,81.0657895 C223.214401,97.9318957 196.251231,112.81565 174.062873,126.539004 C170.901173,128.49718 167.820128,130.431182 164.843936,132.349067 L168.086292,138.376706" id="Fill-5" fill="#878986"></path>
                <path d="M174.062873,126.539004 C196.251231,112.81565 223.214401,97.9318957 256.90425,81.0657895 L245.322104,75.6344681 L239.845588,73.0477409 C217.302345,84.3133006 185.596625,101.598441 157.64139,119.020572 L164.843936,132.349067 C167.820128,130.431182 170.901173,128.49718 174.062873,126.539004" id="Fill-6" fill="#006CA8"></path>
                <path d="M111.554775,302.863548 C110.586907,302.452572 109.191565,301.848197 108.457599,301.525863 C107.876879,301.267996 107.288093,301.002071 106.715438,300.720029 C106.433143,300.615271 106.183111,300.486337 105.908882,300.365462 C95.1090956,295.216183 83.7366546,287.351243 75.533979,277.761818 C73.3159497,275.158974 71.3237562,272.435255 69.6380539,269.590661 C58.5559731,248.792084 62.3145245,219.201859 103.860229,179.393658 C112.990444,170.650359 123.257904,161.890943 135.332048,152.793076 L145.84954,126.547062 C142.10712,128.972623 138.469552,131.406241 135.00136,133.79151 C29.3586421,206.397156 37.408072,255.335457 67.2990412,280.404953 C72.5335903,284.877332 78.5343677,289.019319 84.5754729,291.936438 C92.8910663,295.95755 100.779185,299.688562 109.191565,302.307522 C110.159432,302.605681 111.111169,302.839373 112.07097,303.169765 C112.151626,303.169765 112.401658,303.250348 112.56297,303.306756 L112.579101,303.306756 C112.466183,303.250348 112.062905,303.073065 111.554775,302.863548" id="Fill-7" fill="#006CA8"></path>
                <path d="M70.5817245,134.017144 C33.4075538,175.388663 2.58097953,235.246014 37.73876,276.021216 C7.0573659,209.459325 67.4442213,151.56015 149.817796,99.857839 C158.472143,94.8052597 166.287672,90.5423977 171.102812,88.0926622 C195.251101,75.7795182 253.411862,50.0492377 296.756187,31.0396129 C304.095847,27.8162768 345.907716,8.76636035 347.859581,7.86382623 C347.907975,7.83965121 347.948303,7.82353453 347.948303,7.82353453 C347.948303,7.82353453 259.791721,41.2898218 242.249125,48.139411 C242.015224,48.2199944 242.249125,48.139411 242.16847,48.163586 C233.836745,50.2023461 222.061026,52.2975146 213.648646,51.975181 C206.970361,51.7817808 195.638248,50.3796296 182.781744,44.9805416 C178.926406,43.3608152 156.431556,34.0856656 137.485553,25.2295496 C136.848374,24.931391 136.21926,24.6412907 135.574015,24.3431321 C136.138605,41.3462302 129.758746,58.2445698 119.821975,74.3451337 C107.159044,94.8939014 95.4155869,106.336745 70.5817245,134.017144" id="Fill-8" fill="#DE433E"></path>
                <polyline id="Fill-9" fill="#FACD21" points="153.447299 148.215939 155.455623 181.448535 155.802442 187.000731 155.802442 186.984614 245.814103 352.027482 249.322622 358.603088 252.8876 352.027482 342.334672 187.306948 342.342738 187.34724 345.770601 134.355594 249.185508 312.936473 155.012017 138.819914 152.600415 134.355594 152.955299 140.205949 153.447299 148.215939"></polyline>
                <polyline id="Fill-10" fill="#006CA8" points="51.4986072 453.288586 51.4905416 453.296644 84.7851775 453.288586 51.4986072 453.288586"></polyline>
                <polyline id="Fill-11" fill="#006CA8" points="252.903732 416.139637 249.169377 423.029518 245.459219 416.155754 249.169377 423.037577 252.903732 416.139637"></polyline>
                <polyline id="Fill-12" fill="#006CA8" points="449.066241 459.074474 449.243684 459.517683 408.270634 459.517683 337.027533 277.487834 249.185508 439.871449 161.335417 277.487834 90.0035955 459.67885 49.0144144 459.67885 49.8532327 457.519215 49.0063488 459.67885 18.2765613 476.988165 101.876101 476.988165 163.787348 318.87547 163.868003 318.698186 249.193573 476.456314 334.494947 318.698186 396.390062 476.988165 480.021864 476.988165 449.243684 459.517683 449.066241 459.074474"></polyline>
                <polyline id="Fill-13" fill="#006CA8" points="387.832502 303.306756 445.146379 449.380291 446.485262 452.813144 449.066241 459.074474 387.832502 303.306756"></polyline>
                <polyline id="Fill-14" fill="#878986" points="90.0035955 459.67885 161.335417 277.487834 249.185508 439.871449 337.027533 277.487834 408.270634 459.517683 449.243684 459.517683 449.066241 459.074474 446.485262 452.813144 413.601969 452.813144 337.987335 258.945593 249.169377 423.037577 245.459219 416.155754 160.625648 259.388802 84.7851775 453.288586 51.4905416 453.296644 49.8532327 457.519215 49.0144144 459.67885 90.0035955 459.67885"></polyline>
                <path d="M155.455623,181.448535 L153.423102,148.223997 L152.576218,134.339477 L91.79415,289.390003 C92.253887,289.825153 92.7620174,290.332829 93.1652954,290.695454 C94.5767686,291.968672 96.8915846,294.007432 99.8919733,296.086484 C100.182334,296.296 100.513022,296.505517 100.835644,296.706976 C100.884037,296.747267 100.956627,296.795618 101.029217,296.827851 C101.198594,296.964843 101.400233,297.093776 101.601872,297.22271 C102.101937,297.553102 102.602002,297.883493 103.110132,298.205827 C103.80377,298.624861 104.505474,299.060011 105.199112,299.479045 C105.287834,299.519337 105.368489,299.567687 105.441079,299.616037 C105.771767,299.801378 106.102455,299.978662 106.425078,300.164004 C106.642848,300.292937 106.868684,300.397696 107.086454,300.518571 C107.723633,300.873138 108.352747,301.227705 109.014123,301.566155 L155.802442,187.000731 L155.455623,181.448535" id="Fill-15" fill="#DE433E"></path>
                <path d="M18.2765613,476.988165 L49.0063488,459.67885 L49.8532327,457.519215 L51.4905416,453.296644 L51.4986072,453.288586 L51.4905416,453.288586 L51.538935,453.232178 L108.159173,303.653265 C108.175304,303.653265 108.191436,303.637148 108.191436,303.637148 C107.67524,303.661323 107.159044,303.685498 106.642848,303.693557 C106.23957,303.701615 105.844357,303.701615 105.433014,303.701615 C99.2225317,303.669382 93.0765742,302.855489 87.5597305,301.985189 C87.3338948,301.944897 87.0999935,301.920722 86.8902889,301.864314 L18.2765613,476.988165" id="Fill-16" fill="#DE433E"></path>
                <polyline id="Fill-17" fill="#DE433E" points="387.832502 303.306756 449.066241 459.074474 449.243684 459.517683 480.021864 476.988165 345.770601 134.355594 342.342738 187.34724 387.832502 303.306756"></polyline>
                <path d="M51.538935,453.232178 L51.4905416,453.288586 L84.7851775,453.288586 L160.625648,259.388802 L245.459219,416.155754 L249.169377,423.029518 L252.903732,416.139637 L337.987335,258.945593 L413.601969,452.813144 L446.485262,452.813144 L445.146379,449.380291 L342.342738,187.34724 L342.334672,187.306948 L252.8876,352.027482 L249.322622,358.603088 L245.814103,352.027482 L155.802442,186.984614 L155.802442,187.000731 L109.014123,301.566155 L109.022188,301.558097 C110.070711,302.106064 111.546709,302.831314 112.627494,303.29064 C112.579101,303.274523 112.546839,303.266465 112.530707,303.274523 C112.401658,303.210056 112.014512,303.056948 111.554775,302.863548 C112.062905,303.073065 112.466183,303.250348 112.579101,303.306756 L112.56297,303.306756 C112.272609,303.306756 109.69163,303.572682 108.191436,303.637148 C108.191436,303.637148 108.175304,303.653265 108.159173,303.653265 L51.538935,453.232178" id="Fill-18" fill="#1A1918"></path>
            </g>
        </g>
    </g>
</svg>