<?xml version="1.0" encoding="UTF-8" standalone="no"?>
<svg width="500px" height="502px" viewBox="0 0 500 502" version="1.1" xmlns="http://www.w3.org/2000/svg" xmlns:xlink="http://www.w3.org/1999/xlink">
    <!-- Generator: Sketch 39.1 (31720) - http://www.bohemiancoding.com/sketch -->
    <title>TB</title>
    <desc>Created with Sketch.</desc>
    <defs></defs>
    <g id="MLB" stroke="none" stroke-width="1" fill="none" fill-rule="evenodd">
        <g id="TB">
            <g transform="translate(0.000000, 1.000000)">
                <g id="Group-3" fill="#FFFFFF">
                    <path d="M426.866208,313.308504 L249.903772,490.265026 L70.1911765,310.55243 L31.9432545,310.55243 L31.9432545,306.684463 L118.901535,306.684463 L118.901535,296.204284 C121.219949,296.600543 122.769501,296.878517 122.769501,296.878517 L122.769501,310.55243 L118.091272,310.55243 L229.996164,422.457321 L229.996164,408.440377 L270.077526,408.440377 L270.077526,422.191176 L386.778932,305.477941 C385.974584,305.105339 385.164322,304.756394 384.35406,304.35422 L383.25991,303.821931 L383.212596,302.307864 C394.432065,307.128037 406.591912,309.481937 420.236253,309.481937 C435.678549,309.481937 448.441656,305.726343 457.159367,298.611413 C465.817935,291.555627 470.377877,281.400735 470.377877,269.223146 C470.377877,262.362532 469.165441,256.44821 466.787884,251.308664 C464.913043,247.28101 462.352142,243.714674 458.980978,240.633312 C450.990729,233.264066 441.622442,229.165441 433.348306,225.557705 L428.179188,223.251119 L427.262468,222.831202 C419.597506,219.306266 414.280531,216.733536 410.992168,213.675831 C408.224265,211.103101 406.899457,208.18734 406.899457,204.065058 C406.899457,196.991528 414.528932,191.656809 424.62468,191.656809 C433.371963,191.656809 440.137948,195.134431 444.851662,202.000959 C447.773338,206.259271 449.920237,211.824648 451.262788,218.691176 L451.735934,221.14562 L462.707001,221.14562 L461.382193,187.422155 C462.186541,187.688299 462.97906,187.942615 463.807065,188.232417 L465.11413,188.68782 L466.533568,225.007673 L464.984015,225.007673 L490.07257,250.096228 L472.88555,267.283248 C473.175352,269.459719 473.370524,271.701247 473.370524,274.102462 C473.370524,297.966752 456.04156,312.486413 426.866208,313.308504 L426.866208,313.308504 Z M98.6094949,231.128996 L98.6094949,287.581202 C96.9002558,287.273657 95.528133,287.03117 94.7533568,286.901055 L94.7533568,229.821931 C94.9840153,229.898817 96.610454,230.448849 98.6094949,231.128996 L98.6094949,231.128996 Z M112.709239,184.985454 C118.339674,179.349105 124.141624,173.547155 130.032289,167.650575 C131.014066,170.004476 131.741528,172.612692 132.279731,175.445652 L118.842391,188.888907 L131.055467,196.678069 L127.897219,181.632033 L134.148657,193.153133 L134.107257,193.407449 C128.009591,199.11477 126.980499,205.898497 126.992327,209.920237 L109.184303,211.45796 L126.998242,203.810742 L115.648657,192.082641 L98.6094949,209.115889 L98.6094949,218.005115 C96.8115409,217.981458 95.0609015,217.957801 94.7533568,217.957801 L94.7533568,151.054987 L94.7533568,150.859815 C96.42711,150.729699 98.0890345,150.617327 99.603101,150.617327 C99.7095588,150.617327 99.804188,150.629156 99.9106458,150.629156 C110.757513,150.682385 118.89562,153.497602 124.425512,159.110294 C126.099265,160.813619 127.554188,162.77126 128.748881,164.995045 L110.296196,183.44773 L112.709239,184.985454 L112.709239,184.985454 Z M108.480499,236.611573 C104.813619,235.37548 100.088075,233.784527 100.088075,233.784527 L100.111733,231.625799 C102.96835,232.589834 106.079284,233.636669 107.013747,233.961957 C107.256234,234.375959 107.498721,234.80179 107.498721,234.80179 C108.019182,235.688939 108.320812,236.280371 108.480499,236.611573 L108.480499,236.611573 Z M201.098785,277.171995 C200.584239,278.561861 197.893223,285.836477 195.752238,291.61477 C194.533887,290.331362 193.345109,289.059783 192.209559,287.817775 C194.042999,282.879316 196.414642,276.491848 197.591592,273.309942 L232.982896,273.309942 C233.254955,274.102462 233.73993,275.498242 234.325448,277.171995 L201.098785,277.171995 L201.098785,277.171995 Z M350.28165,306.678549 L349.855818,306.897379 C347.336317,308.163043 344.852302,309.37548 342.391944,310.540601 L229.215473,310.540601 L229.215473,306.678549 L350.28165,306.678549 L350.28165,306.678549 Z M345.603421,255.963235 L345.603421,291.449169 C343.923753,291.183024 342.55163,290.976023 341.735454,290.851822 L341.735454,253.550192 C342.563459,252.172155 375.529891,196.950128 376.949329,194.584399 C377.611733,194.48977 379.279572,194.259111 381.355499,193.963395 C379.03117,197.222187 377.250959,200.877238 376.085838,204.893063 C366.380435,221.157449 346.029252,255.241688 345.603421,255.963235 L345.603421,255.963235 Z M362.128037,318.365249 L360.803229,319.695972 C357.230978,323.280051 341.901055,334.280691 319.633632,343.648977 C300.240569,351.804827 270.450128,360.688139 238.672474,356.701886 C216.85454,353.975384 197.029731,345.683504 179.351822,331.932705 C195.935582,343.536605 214.287724,350.64562 234.337276,353.165121 C247.940217,354.868446 261.158728,354.253357 273.383632,352.366688 C289.914162,349.823529 304.59351,344.956042 315.807065,340.313299 C336.347506,331.796675 350.955882,321.913843 356.065857,317.53133 C356.550831,317.105499 356.988491,316.726982 357.30195,316.413523 L358.987532,314.716113 L362.128037,318.365249 L362.128037,318.365249 Z M355.983056,310.540601 L352.742008,306.678549 L363.310902,306.678549 L363.310902,299.338875 C365.599744,299.68782 367.16704,299.936221 367.16704,299.936221 L367.16704,310.540601 L355.983056,310.540601 L355.983056,310.540601 Z M398.495205,286.285965 C394.254636,282.00991 391.327046,275.882673 389.653293,267.851023 L392.651854,267.851023 L392.923913,269.560262 C393.964834,276.255275 395.839674,281.808824 398.495205,286.285965 L398.495205,286.285965 Z M433.632193,272.617967 C435.436061,274.824009 436.394182,277.52094 436.394182,280.454444 C436.394182,288.533408 429.486253,293.74984 418.78133,293.74984 C416.723146,293.74984 414.771419,293.613811 412.920237,293.324009 L433.632193,272.617967 L433.632193,272.617967 Z M431.402494,270.896899 C425.180627,277.12468 417.82321,284.488012 409.667359,292.637948 C407.088715,291.951886 404.752558,290.952366 402.641145,289.627558 L424.453165,267.803708 L423.80259,267.159047 C422.826726,266.727302 421.850863,266.289642 420.851343,265.851982 C418.018382,264.60406 415.084879,263.320652 412.151375,261.8539 C404.859015,258.263907 398.980179,254.626598 394.331522,250.776375 C397.951087,253.195332 402.085198,255.549233 406.828485,257.891304 C409.779731,259.363971 412.736893,260.659207 415.59351,261.913043 C421.49009,264.503517 427.067295,266.952046 431.491208,270.524297 C431.970269,270.902813 432.407928,271.310902 432.827845,271.730818 C432.360614,271.446931 431.887468,271.168958 431.402494,270.896899 L431.402494,270.896899 Z M343.012948,195.164003 L343.012948,192.277813 C345.946451,192.851503 349.323529,193.513907 351.511829,193.939738 C351.145141,194.566656 350.636509,195.453804 350.027334,196.536125 C346.366368,195.820492 343.012948,195.164003 343.012948,195.164003 L343.012948,195.164003 Z M29.0984655,293.714354 L52.7675831,289.444214 L52.7675831,151.853421 L29.0984655,147.352621 L29.0984655,137.653133 L111.431746,137.653133 C154.310582,137.653133 174.519821,149.712436 174.519821,179.78085 C174.519821,187.8125 172.73961,195.465633 169.261988,202.255275 L172.43798,202.757992 C175.164482,197.151215 176.838235,190.941176 177.358696,184.287564 C177.476982,182.803069 177.553868,181.306746 177.553868,179.78085 C177.553868,170.601822 175.779572,162.930946 172.136349,156.65585 C178.411445,163.59335 181.421835,172.855179 181.421835,184.648338 C181.421835,191.443894 180.215313,197.819533 177.944214,203.633312 L186.632353,205.011349 L176.997922,205.922155 C172.881554,215.059783 165.991368,222.641944 156.747283,227.935262 L157.72906,229.295556 L156.309623,228.171835 C155.59399,228.574009 154.890185,228.970269 154.150895,229.348785 C152.772858,230.011189 151.442136,230.596707 150.152813,231.13491 C152.246483,234.210358 160.224904,245.968031 160.224904,245.968031 C160.224904,245.968031 168.280211,257.80259 170.586797,261.19741 C169.735134,260.079604 168.883472,258.938139 168.043638,257.826247 C168.043638,257.826247 167.268862,256.797155 167.191976,256.696611 C167.138747,256.625639 156.25048,240.609655 156.25048,240.609655 C156.25048,240.609655 150.620045,232.317775 147.568254,227.816976 C147.30211,227.42663 147.04188,227.048114 146.82305,226.716912 C147.775256,226.302909 148.745205,225.865249 149.721068,225.392104 C150.347986,225.07273 150.945332,224.723785 151.554508,224.386669 L148.975863,222.334399 C148.780691,222.440857 148.597347,222.547315 148.402174,222.647858 C146.527334,223.558664 144.764866,224.321611 143.132513,224.960358 L142.269022,225.421675 C150.815217,237.859495 158.095748,248.931106 164.719789,258.470908 C168.339354,263.273338 172.136349,268.294597 176.116688,273.375 L213.761349,181.762148 L235.141624,181.762148 L279.025895,293.454124 L289.429188,296.547315 L305.238171,293.454124 L305.238171,252.710358 L269.036605,191.775096 L252.955563,188.622762 L252.955563,181.762148 L320.04172,181.762148 L320.04172,188.622762 L305.238171,191.775096 L329.563779,238.314898 L356.255115,191.775096 L340.162244,188.622762 L340.162244,181.762148 L404.084239,181.762148 C410.18782,179.822251 417.231777,178.775416 425.168798,178.775416 C436.139866,178.775416 446.744246,181.241688 458.259431,185.275256 L459.542839,218.111573 L454.243606,218.111573 C450.405211,198.452366 440.173434,188.622762 424.62468,188.622762 C413.292839,188.622762 403.859495,194.755914 403.859495,204.065058 C403.859495,215.657129 412.825607,219.525096 426.913523,226.013107 C436.051151,230.230019 447.601822,234.269501 456.928708,242.886669 C464.049552,249.37468 467.349744,257.974105 467.349744,269.223146 C467.349744,291.691656 450.771899,306.453804 420.236253,306.453804 C405.616049,306.453804 392.444853,303.638587 380.379636,297.671036 L379.46883,265.006234 L386.045556,265.006234 C389.333919,286.078964 400.494246,296.795716 418.78133,296.795716 C431.751439,296.795716 439.434143,289.941017 439.434143,280.454444 C439.434143,275.545556 437.251758,271.151215 433.401535,268.164482 C426.446292,262.545876 417.314578,259.730659 408.171036,255.164802 C387.512308,244.986253 377.446132,234.452845 377.446132,217.058824 C377.446132,205.679668 381.597986,196.382353 389.23929,189.781969 L375.080403,191.775096 L338.701407,252.710358 L338.701407,293.454124 L360.27094,296.795716 L360.27094,303.638587 L226.370684,303.638587 L226.370684,296.795716 L243.196931,293.454124 L235.141624,270.264066 L195.474265,270.264066 L188.737852,288.432864 C189.021739,288.775895 189.305627,289.107097 189.577685,289.438299 C221.810742,324.882832 265.41704,353.088235 351.227941,309.600224 L355.155051,314.266624 C344.5625,324.871004 213.725863,410.705563 134.550831,277.012308 C125.61429,263.551311 118.688619,248.540761 111.43766,235.783568 C111.43766,235.783568 111.094629,234.920077 110.148338,233.311381 C109.757992,232.619405 109.414962,232.01023 109.077845,231.442455 L97.2551151,227.456202 L97.2610294,226.060422 L97.2610294,221.021419 C98.9170396,221.074648 102.069373,221.092391 102.962436,221.092391 C113.726503,221.092391 121.793638,218.549233 127.293958,213.391944 L127.299872,213.403772 L129.683344,210.819214 L132.356618,232.382832 L136.200927,208.997602 L143.842231,214.539322 L138.886029,206.590473 L158.764066,204.550032 L138.897858,200.149776 L141.831362,192.650416 L135.526694,196.861413 L136.195013,191.650895 C136.171355,191.668638 136.153613,191.692295 136.129955,191.704124 C136.242327,190.160486 136.325128,188.569533 136.325128,186.889866 C136.325128,161.079763 123.99968,147.58328 99.603101,147.58328 C97.1309143,147.58328 94.4339834,147.819853 91.7133951,148.056426 L91.7133951,289.444214 L115.867487,293.714354 L115.867487,303.650416 L29.0984655,303.650416 L29.0984655,293.714354 L29.0984655,293.714354 Z M9.7290601,250.096228 L49.7276215,210.097666 L49.7276215,286.912884 C49.1361893,287.013427 48.1898977,287.190857 47.0306905,287.397858 L9.7290601,250.096228 L9.7290601,250.096228 Z M31.9432545,155.650416 L31.9432545,150.984015 C33.1970908,151.226503 34.5751279,151.486733 35.9945652,151.758792 C41.5244565,152.805627 47.6930946,153.982577 49.7276215,154.367008 L49.7276215,154.905211 L49.7276215,159.027494 C42.6245205,157.673114 31.9432545,155.650416 31.9432545,155.650416 L31.9432545,155.650416 Z M255.800352,195.164003 L255.800352,192.271899 C260.253836,193.153133 265.813299,194.247283 267.120364,194.495684 C267.29188,194.785486 267.98977,195.956522 269.060262,197.76039 C264.068574,196.784527 255.800352,195.164003 255.800352,195.164003 L255.800352,195.164003 Z M285.407449,292.182545 C283.627238,291.650256 282.036285,291.171196 281.308824,290.964194 C280.398018,288.657609 248.478421,207.388907 239.524137,184.606937 L243.149616,184.606937 C243.149616,184.606937 277.156969,271.174872 285.407449,292.182545 L285.407449,292.182545 Z M266.901535,74.8252877 L249.891944,91.8407928 L232.894182,74.8371164 L161.993286,145.738012 C160.059303,144.383632 157.936061,143.159367 155.623561,142.065217 C203.32257,94.3662084 248.975224,48.7194693 249.903772,47.7909207 C251.074808,48.9501279 323.063939,120.951087 380.846867,178.728101 L370.792519,178.728101 L266.901535,74.8252877 L266.901535,74.8252877 Z M331.586477,228.668638 C330.829444,230.005275 330.16704,231.13491 329.682065,231.986573 C325.920556,224.794757 312.589674,199.274457 309.792199,193.916081 C314.02094,193.017104 323.087596,191.077206 323.087596,191.077206 L323.087596,184.606937 L326.943734,184.606937 L326.943734,192.95796 C326.943734,192.95796 318.155051,195.093031 314.908088,195.879636 C316.303868,198.63571 325.465153,216.644821 331.586477,228.668638 L331.586477,228.668638 Z M249.903772,9.92742967 L416.184942,176.202685 C411.701886,176.68766 407.526375,177.533408 403.682065,178.728101 L384.785806,178.728101 L249.903772,43.8401535 L152.88523,140.852781 C145.356298,137.777334 136.005754,135.872922 124.762628,135.06266 L249.903772,9.92742967 L249.903772,9.92742967 Z M499.807545,250.096228 L469.538043,219.820812 L468.21915,186.381234 L468.201407,186.37532 L468.165921,185.547315 L460.169757,182.70844 L460.169757,182.720269 L459.264866,182.406809 C446.211957,177.829124 435.773178,175.782769 425.4586,175.741368 L249.903772,0.192455243 L115.44757,134.648657 C114.122762,134.630914 112.79204,134.613171 111.431746,134.613171 L26.0585038,134.613171 L26.0585038,149.866208 C26.0585038,149.866208 27.0994246,150.061381 28.7376918,150.37484 L28.7376918,158.305946 C28.7376918,158.305946 43.0030371,161.008792 49.7276215,162.292199 L49.7276215,200.362692 L0,250.096228 L38.780211,288.876439 C32.5169437,290.006074 26.0585038,291.171196 26.0585038,291.171196 L26.0585038,306.684463 L28.7376918,306.684463 L28.7376918,313.763907 L63.6617647,313.763907 L249.903772,500 L433.851023,316.040921 C460.790761,313.184303 476.570173,297.966752 476.570173,274.102462 C476.570173,273.848146 476.546515,273.617487 476.540601,273.363171 L499.807545,250.096228 L499.807545,250.096228 Z" id="Fill-1"></path>
                </g>
                <path d="M249.903772,43.8401535 L384.785806,178.728101 L403.682065,178.728101 C407.526375,177.533408 411.701886,176.68766 416.184942,176.202685 L249.903772,9.92742967 L124.762628,135.06266 C136.005754,135.872922 145.356298,137.777334 152.88523,140.852781 L249.903772,43.8401535" id="Fill-4" fill="#0F182A"></path>
                <path d="M49.7276215,286.912884 L49.7276215,210.097666 L9.7290601,250.096228 L47.0306905,287.397858 C48.1898977,287.190857 49.1361893,287.013427 49.7276215,286.912884" id="Fill-5" fill="#0F182A"></path>
                <path d="M418.78133,293.74984 C429.486253,293.74984 436.394182,288.533408 436.394182,280.454444 C436.394182,277.52094 435.436061,274.824009 433.632193,272.617967 L412.920237,293.324009 C414.771419,293.613811 416.723146,293.74984 418.78133,293.74984" id="Fill-6" fill="#0F182A"></path>
                <path d="M396.886509,309.369565 L249.903772,456.346387 L104.109815,310.55243 L70.1911765,310.55243 L249.903772,490.265026 L426.866208,313.308504 C425.996803,313.326247 425.121483,313.338075 424.228421,313.338075 C414.345588,313.338075 405.414962,312.048753 396.886509,309.369565" id="Fill-7" fill="#0F182A"></path>
                <path d="M490.07257,250.096228 L464.984015,225.007673 L453.557545,225.007673 L453.244086,223.37532 C453.084399,222.606458 452.924712,221.88491 452.765026,221.14562 L451.735934,221.14562 L451.262788,218.691176 C449.920237,211.824648 447.773338,206.259271 444.851662,202.000959 C440.883152,197.234015 435.696292,195.075288 428.847506,195.075288 C418.16624,195.075288 410.105019,200.841752 410.105019,208.500799 C410.105019,210.434783 410.40665,212.144022 410.992168,213.675831 C414.280531,216.733536 419.597506,219.306266 427.262468,222.831202 L428.179188,223.251119 L433.348306,225.557705 C441.622442,229.165441 450.990729,233.264066 458.980978,240.633312 C462.352142,243.714674 464.913043,247.28101 466.787884,251.308664 C470.040761,255.803549 472.05163,261.102781 472.88555,267.283248 L490.07257,250.096228" id="Fill-8" fill="#0F182A"></path>
                <path d="M396.886509,309.369565 C395.886988,309.056106 394.893382,308.754476 393.905691,308.393702 C334.579124,367.720269 251.157609,451.13587 249.903772,452.39562 C248.661765,451.159527 167.215633,369.719309 108.048753,310.55243 L104.109815,310.55243 L249.903772,456.346387 L396.886509,309.369565" id="Fill-9" fill="#FFFFFF"></path>
                <path d="M110.716113,186.972666 L108.776215,184.967711 L98.6094949,195.134431 L98.6094949,199.07337 C102.524776,195.164003 106.570173,191.118606 110.716113,186.972666" id="Fill-10" fill="#FFFFFF"></path>
                <polyline id="Fill-11" fill="#FFFFFF" points="236.986893 70.7325767 249.891944 83.6376279 262.802909 70.7325767 249.891944 57.8275256 236.986893 70.7325767"></polyline>
                <polyline id="Fill-12" fill="#FFFFFF" points="235.9164 428.377558 249.903772 442.376758 264.151375 428.09367 264.151375 414.331042 235.9164 414.331042 235.9164 428.377558"></polyline>
                <path d="M124.425512,159.110294 C119.161765,156.058504 112.531809,154.491208 104.482417,154.491208 C102.648977,154.491208 100.667679,154.627238 98.6094949,154.798753 L98.6094949,195.134431 L108.776215,184.967711 L102.501119,178.479699 L110.296196,183.44773 L128.748881,164.995045 C127.554188,162.77126 126.099265,160.813619 124.425512,159.110294" id="Fill-13" fill="#0F182A"></path>
                <path d="M208.840633,257.560102 C206.628676,257.560102 204.665121,257.566017 203.216113,257.571931 C203.772059,256.09335 204.351662,254.537884 204.351662,254.537884 C204.351662,254.537884 211.933824,234.168958 216.310422,222.399457 C216.984655,224.433983 217.777174,226.86477 218.628836,229.472986 C215.198529,238.699329 209.869725,253.011988 208.639546,256.324009 L209.30195,256.324009 C209.30195,256.324009 209.12452,256.814898 208.840633,257.560102 L208.840633,257.560102 Z M216.493766,213.196771 L201.506873,253.473306 L198.8336,260.617807 L232.007033,260.535006 L216.493766,213.196771 L216.493766,213.196771 Z" id="Fill-14" fill="#FFFFFF"></path>
                <path d="M170.403453,206.537244 L166.5,206.909847 C162.803549,212.398338 157.853261,217.147538 151.678708,220.84399 L153.447091,223.316176 C160.615249,218.980978 166.340313,213.285486 170.403453,206.537244" id="Fill-15" fill="#FFFFFF"></path>
                <path d="M201.506873,253.473306 L216.493766,213.196771 L232.007033,260.535006 L198.8336,260.617807 L201.506873,253.473306 L201.506873,253.473306 Z M131.978101,255.425032 L127.299872,213.403772 L127.293958,213.391944 C121.793638,218.549233 113.726503,221.092391 102.962436,221.092391 C102.069373,221.092391 98.9170396,221.074648 97.2610294,221.021419 L97.2610294,226.060422 L97.2551151,227.456202 L109.077845,231.442455 C109.414962,232.01023 109.757992,232.619405 110.148338,233.311381 C111.094629,234.920077 111.43766,235.783568 111.43766,235.783568 C118.688619,248.540761 125.61429,263.551311 134.550831,277.012308 C213.725863,410.705563 344.5625,324.871004 355.155051,314.266624 L351.227941,309.600224 C265.41704,353.088235 221.810742,324.882832 189.577685,289.438299 C189.305627,289.107097 189.021739,288.775895 188.737852,288.432864 L195.474265,270.264066 L235.141624,270.264066 L243.196931,293.454124 L226.370684,296.795716 L226.370684,303.638587 L360.27094,303.638587 L360.27094,296.795716 L338.701407,293.454124 L338.701407,252.710358 L375.080403,191.775096 L389.23929,189.781969 C381.597986,196.382353 377.446132,205.679668 377.446132,217.058824 C377.446132,234.452845 387.512308,244.986253 408.171036,255.164802 C417.314578,259.730659 426.446292,262.545876 433.401535,268.164482 C437.251758,271.151215 439.434143,275.545556 439.434143,280.454444 C439.434143,289.941017 431.751439,296.795716 418.78133,296.795716 C400.494246,296.795716 389.333919,286.078964 386.045556,265.006234 L379.46883,265.006234 L380.379636,297.671036 C392.444853,303.638587 405.616049,306.453804 420.236253,306.453804 C450.771899,306.453804 467.349744,291.691656 467.349744,269.223146 C467.349744,257.974105 464.049552,249.37468 456.928708,242.886669 C447.601822,234.269501 436.051151,230.230019 426.913523,226.013107 C412.825607,219.525096 403.859495,215.657129 403.859495,204.065058 C403.859495,194.755914 413.292839,188.622762 424.62468,188.622762 C440.173434,188.622762 450.405211,198.452366 454.243606,218.111573 L459.542839,218.111573 L458.259431,185.275256 C446.744246,181.241688 436.139866,178.775416 425.168798,178.775416 C417.231777,178.775416 410.18782,179.822251 404.084239,181.762148 L340.162244,181.762148 L340.162244,188.622762 L356.255115,191.775096 L329.563779,238.314898 L305.238171,191.775096 L320.04172,188.622762 L320.04172,181.762148 L252.955563,181.762148 L252.955563,188.622762 L269.036605,191.775096 L305.238171,252.710358 L305.238171,293.454124 L289.429188,296.547315 L279.025895,293.454124 L235.141624,181.762148 L213.761349,181.762148 L176.116688,273.375 C172.136349,268.294597 168.339354,263.273338 164.719789,258.470908 C158.095748,248.931106 150.815217,237.859495 142.269022,225.421675 L143.132513,224.960358 C144.764866,224.321611 146.527334,223.558664 148.402174,222.647858 C148.597347,222.547315 148.780691,222.440857 148.975863,222.334399 L138.359655,213.894661 L131.978101,255.425032 L131.978101,255.425032 Z" id="Fill-16" fill="#0F182A"></path>
                <path d="M115.867487,293.714354 L91.7133951,289.444214 L91.7133951,148.056426 C94.4339834,147.819853 97.1309143,147.58328 99.603101,147.58328 C123.99968,147.58328 136.325128,161.079763 136.325128,186.889866 C136.325128,188.569533 136.242327,190.160486 136.129955,191.704124 C136.153613,191.692295 136.171355,191.668638 136.195013,191.650895 L136.047155,192.798274 L151.335678,176.72906 L143.723945,198.19805 L169.261988,202.255275 C172.73961,195.465633 174.519821,187.8125 174.519821,179.78085 C174.519821,149.712436 154.310582,137.653133 111.431746,137.653133 L29.0984655,137.653133 L29.0984655,147.352621 L52.7675831,151.853421 L52.7675831,289.444214 L29.0984655,293.714354 L29.0984655,303.650416 L115.867487,303.650416 L115.867487,293.714354" id="Fill-17" fill="#0F182A"></path>
                <path d="M166.5,206.909847 L143.280371,209.098146 L151.678708,220.84399 C157.853261,217.147538 162.803549,212.398338 166.5,206.909847" id="Fill-18" fill="#0F182A"></path>
                <path d="M108.776215,184.967711 L110.716113,186.972666 L115.648657,192.082641 L126.998242,203.810742 L109.184303,211.45796 L126.992327,209.920237 C126.980499,205.898497 128.009591,199.11477 134.107257,193.407449 L134.148657,193.153133 L127.897219,181.632033 L131.055467,196.678069 L118.842391,188.888907 L112.709239,184.985454 L110.296196,183.44773 L102.501119,178.479699 L108.776215,184.967711" id="Fill-19" fill="#FAC922"></path>
                <polyline id="Fill-20" fill="#FAC922" points="151.335678 176.72906 136.047155 192.798274 135.526694 196.861413 141.831362 192.650416 138.897858 200.149776 158.764066 204.550032 138.886029 206.590473 143.842231 214.539322 136.200927 208.997602 132.356618 232.382832 129.683344 210.819214 127.299872 213.403772 131.978101 255.425032 138.359655 213.894661 148.975863 222.334399 151.554508 224.386669 152.867487 225.433504 156.309623 228.171835 157.72906 229.295556 156.747283 227.935262 154.381554 224.617327 153.447091 223.316176 143.280371 209.098146 166.5 206.909847 170.403453 206.537244 172.284207 206.365729 176.997922 205.922155 186.632353 205.011349 177.944214 203.633312 173.845588 202.982737 172.43798 202.757992 169.261988 202.255275 143.723945 198.19805 151.335678 176.72906"></polyline>
                <path d="M132.279731,175.445652 C131.741528,172.612692 131.014066,170.004476 130.032289,167.650575 C124.141624,173.547155 118.339674,179.349105 112.709239,184.985454 L118.842391,188.888907 L132.279731,175.445652" id="Fill-23" fill="#6BA9D0"></path>
                <path d="M249.891944,83.6376279 L236.986893,70.7325767 L249.891944,57.8275256 L262.802909,70.7325767 L249.891944,83.6376279 L249.891944,83.6376279 Z M380.846867,178.728101 C323.063939,120.951087 251.074808,48.9501279 249.903772,47.7909207 C248.975224,48.7194693 203.32257,94.3662084 155.623561,142.065217 C157.936061,143.159367 160.059303,144.383632 161.993286,145.738012 L232.894182,74.8371164 L249.891944,91.8407928 L266.901535,74.8252877 L370.792519,178.728101 L380.846867,178.728101 L380.846867,178.728101 Z" id="Fill-24" fill="#6BA9D0"></path>
                <path d="M255.800352,192.271899 L255.800352,195.164003 C255.800352,195.164003 264.068574,196.784527 269.060262,197.76039 C267.98977,195.956522 267.29188,194.785486 267.120364,194.495684 C265.813299,194.247283 260.253836,193.153133 255.800352,192.271899" id="Fill-25" fill="#6BA9D0"></path>
                <path d="M381.355499,193.963395 C379.279572,194.259111 377.611733,194.48977 376.949329,194.584399 C375.529891,196.950128 342.563459,252.172155 341.735454,253.550192 L341.735454,290.851822 C342.55163,290.976023 343.923753,291.183024 345.603421,291.449169 L345.603421,255.963235 C346.029252,255.241688 366.380435,221.157449 376.085838,204.893063 C377.250959,200.877238 379.03117,197.222187 381.355499,193.963395" id="Fill-26" fill="#6BA9D0"></path>
                <path d="M326.943734,184.606937 L323.087596,184.606937 L323.087596,191.077206 C323.087596,191.077206 314.02094,193.017104 309.792199,193.916081 C312.589674,199.274457 325.920556,224.794757 329.682065,231.986573 C330.16704,231.13491 330.829444,230.005275 331.586477,228.668638 C325.465153,216.644821 316.303868,198.63571 314.908088,195.879636 C318.155051,195.093031 326.943734,192.95796 326.943734,192.95796 L326.943734,184.606937" id="Fill-27" fill="#6BA9D0"></path>
                <path d="M367.16704,299.936221 C367.16704,299.936221 365.599744,299.68782 363.310902,299.338875 L363.310902,306.678549 L352.742008,306.678549 L355.983056,310.540601 L367.16704,310.540601 L367.16704,299.936221" id="Fill-28" fill="#6BA9D0"></path>
                <path d="M343.012948,192.277813 L343.012948,195.164003 C343.012948,195.164003 346.366368,195.820492 350.027334,196.536125 C350.636509,195.453804 351.145141,194.566656 351.511829,193.939738 C349.323529,193.513907 345.946451,192.851503 343.012948,192.277813" id="Fill-29" fill="#6BA9D0"></path>
                <path d="M229.215473,306.678549 L229.215473,310.540601 L342.391944,310.540601 C344.852302,309.37548 347.336317,308.163043 349.855818,306.897379 L350.28165,306.678549 L229.215473,306.678549" id="Fill-30" fill="#6BA9D0"></path>
                <path d="M264.151375,428.09367 L249.903772,442.376758 L235.9164,428.377558 L235.9164,414.331042 L264.151375,414.331042 L264.151375,428.09367 L264.151375,428.09367 Z M466.787884,251.308664 C469.165441,256.44821 470.377877,262.362532 470.377877,269.223146 C470.377877,281.400735 465.817935,291.555627 457.159367,298.611413 C448.441656,305.726343 435.678549,309.481937 420.236253,309.481937 C406.591912,309.481937 394.432065,307.128037 383.212596,302.307864 L383.25991,303.821931 L384.35406,304.35422 C385.164322,304.756394 385.974584,305.105339 386.778932,305.477941 L270.077526,422.191176 L270.077526,408.440377 L229.996164,408.440377 L229.996164,422.457321 L118.091272,310.55243 L122.769501,310.55243 L122.769501,296.878517 C122.769501,296.878517 121.219949,296.600543 118.901535,296.204284 L118.901535,306.684463 L31.9432545,306.684463 L31.9432545,310.55243 L108.048753,310.55243 C167.215633,369.719309 248.661765,451.159527 249.903772,452.39562 C251.157609,451.13587 334.579124,367.720269 393.905691,308.393702 C394.893382,308.754476 395.886988,309.056106 396.886509,309.369565 C405.414962,312.048753 414.345588,313.338075 424.228421,313.338075 C425.121483,313.338075 425.996803,313.326247 426.866208,313.308504 C456.04156,312.486413 473.370524,297.966752 473.370524,274.102462 C473.370524,271.701247 473.175352,269.459719 472.88555,267.283248 C472.05163,261.102781 470.040761,255.803549 466.787884,251.308664 L466.787884,251.308664 Z" id="Fill-31" fill="#6BA9D0"></path>
                <path d="M453.557545,225.007673 L466.533568,225.007673 L465.11413,188.68782 L463.807065,188.232417 C462.97906,187.942615 462.186541,187.688299 461.382193,187.422155 L462.707001,221.14562 L452.765026,221.14562 C452.924712,221.88491 453.084399,222.606458 453.244086,223.37532 L453.557545,225.007673" id="Fill-32" fill="#6BA9D0"></path>
                <path d="M415.59351,261.913043 C412.736893,260.659207 409.779731,259.363971 406.828485,257.891304 C402.085198,255.549233 397.951087,253.195332 394.331522,250.776375 C398.980179,254.626598 404.859015,258.263907 412.151375,261.8539 C415.084879,263.320652 418.018382,264.60406 420.851343,265.851982 C421.850863,266.289642 422.826726,266.727302 423.80259,267.159047 L424.453165,267.803708 L402.641145,289.627558 C404.752558,290.952366 407.088715,291.951886 409.667359,292.637948 C417.82321,284.488012 425.180627,277.12468 431.402494,270.896899 C431.887468,271.168958 432.360614,271.446931 432.827845,271.730818 C432.407928,271.310902 431.970269,270.902813 431.491208,270.524297 C427.067295,266.952046 421.49009,264.503517 415.59351,261.913043" id="Fill-33" fill="#6BA9D0"></path>
                <path d="M428.847506,195.075288 C435.696292,195.075288 440.883152,197.234015 444.851662,202.000959 C440.137948,195.134431 433.371963,191.656809 424.62468,191.656809 C414.528932,191.656809 406.899457,196.991528 406.899457,204.065058 C406.899457,208.18734 408.224265,211.103101 410.992168,213.675831 C410.40665,212.144022 410.105019,210.434783 410.105019,208.500799 C410.105019,200.841752 418.16624,195.075288 428.847506,195.075288" id="Fill-34" fill="#6BA9D0"></path>
                <path d="M392.651854,267.851023 L389.653293,267.851023 C391.327046,275.882673 394.254636,282.00991 398.495205,286.285965 C395.839674,281.808824 393.964834,276.255275 392.923913,269.560262 L392.651854,267.851023" id="Fill-35" fill="#6BA9D0"></path>
                <path d="M232.982896,273.309942 L197.591592,273.309942 C196.414642,276.491848 194.042999,282.879316 192.209559,287.817775 C193.345109,289.059783 194.533887,290.331362 195.752238,291.61477 C197.893223,285.836477 200.584239,278.561861 201.098785,277.171995 L234.325448,277.171995 C233.73993,275.498242 233.254955,274.102462 232.982896,273.309942" id="Fill-36" fill="#6BA9D0"></path>
                <path d="M218.628836,229.472986 C217.777174,226.86477 216.984655,224.433983 216.310422,222.399457 C211.933824,234.168958 204.351662,254.537884 204.351662,254.537884 C204.351662,254.537884 203.772059,256.09335 203.216113,257.571931 C204.665121,257.566017 206.628676,257.560102 208.840633,257.560102 C209.12452,256.814898 209.30195,256.324009 209.30195,256.324009 L208.639546,256.324009 C209.869725,253.011988 215.198529,238.699329 218.628836,229.472986" id="Fill-37" fill="#6BA9D0"></path>
                <path d="M239.524137,184.606937 C248.478421,207.388907 280.398018,288.657609 281.308824,290.964194 C282.036285,291.171196 283.627238,291.650256 285.407449,292.182545 C277.156969,271.174872 243.149616,184.606937 243.149616,184.606937 L239.524137,184.606937" id="Fill-38" fill="#6BA9D0"></path>
                <path d="M177.944214,203.633312 C180.215313,197.819533 181.421835,191.443894 181.421835,184.648338 C181.421835,172.855179 178.411445,163.59335 172.136349,156.65585 C175.779572,162.930946 177.553868,170.601822 177.553868,179.78085 C177.553868,181.306746 177.476982,182.803069 177.358696,184.287564 C176.838235,190.941176 175.164482,197.151215 172.43798,202.757992 L173.845588,202.982737 L177.944214,203.633312" id="Fill-39" fill="#6BA9D0"></path>
                <path d="M94.7533568,286.901055 C95.528133,287.03117 96.9002558,287.273657 98.6094949,287.581202 L98.6094949,231.128996 C96.610454,230.448849 94.9840153,229.898817 94.7533568,229.821931 L94.7533568,286.901055" id="Fill-40" fill="#6BA9D0"></path>
                <path d="M100.111733,231.625799 L100.088075,233.784527 C100.088075,233.784527 104.813619,235.37548 108.480499,236.611573 C108.320812,236.280371 108.019182,235.688939 107.498721,234.80179 C107.498721,234.80179 107.256234,234.375959 107.013747,233.961957 C106.079284,233.636669 102.96835,232.589834 100.111733,231.625799" id="Fill-41" fill="#6BA9D0"></path>
                <path d="M356.065857,317.53133 C350.955882,321.913843 336.347506,331.796675 315.807065,340.313299 C304.59351,344.956042 289.914162,349.823529 273.383632,352.366688 C261.158728,354.253357 247.940217,354.868446 234.337276,353.165121 C214.287724,350.64562 195.935582,343.536605 179.351822,331.932705 C197.029731,345.683504 216.85454,353.975384 238.672474,356.701886 C270.450128,360.688139 300.240569,351.804827 319.633632,343.648977 C341.901055,334.280691 357.230978,323.280051 360.803229,319.695972 L362.128037,318.365249 L358.987532,314.716113 L357.30195,316.413523 C356.988491,316.726982 356.550831,317.105499 356.065857,317.53133" id="Fill-42" fill="#6BA9D0"></path>
                <path d="M98.6094949,199.07337 L98.6094949,195.134431 L98.6094949,154.798753 C100.667679,154.627238 102.648977,154.491208 104.482417,154.491208 C112.531809,154.491208 119.161765,156.058504 124.425512,159.110294 C118.89562,153.497602 110.757513,150.682385 99.9106458,150.629156 C99.804188,150.629156 99.7095588,150.617327 99.603101,150.617327 C98.0890345,150.617327 96.42711,150.729699 94.7533568,150.859815 L94.7533568,151.054987 L94.7533568,217.957801 C95.0609015,217.957801 96.8115409,217.981458 98.6094949,218.005115 L98.6094949,209.115889 L115.648657,192.082641 L110.716113,186.972666 C106.570173,191.118606 102.524776,195.164003 98.6094949,199.07337" id="Fill-43" fill="#6BA9D0"></path>
                <path d="M49.7276215,154.905211 L49.7276215,154.367008 C47.6930946,153.982577 41.5244565,152.805627 35.9945652,151.758792 C34.5751279,151.486733 33.1970908,151.226503 31.9432545,150.984015 L31.9432545,155.650416 C31.9432545,155.650416 42.6245205,157.673114 49.7276215,159.027494 L49.7276215,154.905211" id="Fill-44" fill="#6BA9D0"></path>
                <path d="M170.403453,206.537244 C166.340313,213.285486 160.615249,218.980978 153.447091,223.316176 L154.381554,224.617327 L156.747283,227.935262 C165.991368,222.641944 172.881554,215.059783 176.997922,205.922155 L172.284207,206.365729 L170.403453,206.537244" id="Fill-45" fill="#6BA9D0"></path>
                <path d="M151.554508,224.386669 C150.945332,224.723785 150.347986,225.07273 149.721068,225.392104 C148.745205,225.865249 147.775256,226.302909 146.82305,226.716912 C147.04188,227.048114 147.30211,227.42663 147.568254,227.816976 C150.620045,232.317775 156.25048,240.609655 156.25048,240.609655 C156.25048,240.609655 167.138747,256.625639 167.191976,256.696611 C167.268862,256.797155 168.043638,257.826247 168.043638,257.826247 C168.883472,258.938139 169.735134,260.079604 170.586797,261.19741 C168.280211,257.80259 160.224904,245.968031 160.224904,245.968031 C160.224904,245.968031 152.246483,234.210358 150.152813,231.13491 C151.442136,230.596707 152.772858,230.011189 154.150895,229.348785 C154.890185,228.970269 155.59399,228.574009 156.309623,228.171835 L152.867487,225.433504 L151.554508,224.386669" id="Fill-46" fill="#6BA9D0"></path>
            </g>
        </g>
    </g>
</svg>